<svg width="17" height="17" viewBox="0 0 17 17" fill="none" xmlns="http://www.w3.org/2000/svg">
<path fill-rule="evenodd" clip-rule="evenodd" d="M0.294092 0.208299C0.420957 0.098086 0.577646 0.027958 0.744354 0.00677778C0.911063 -0.0144024 1.08031 0.0143161 1.2307 0.0893035L16.5292 7.73901C16.6706 7.8095 16.7896 7.91803 16.8728 8.05241C16.9559 8.18679 17 8.34169 17 8.49973C17 8.65776 16.9559 8.81267 16.8728 8.94705C16.7896 9.08143 16.6706 9.18996 16.5292 9.26045L1.2307 16.9102C1.08032 16.9854 0.910998 17.0144 0.744161 16.9933C0.577325 16.9723 0.420471 16.9023 0.293449 16.7921C0.166427 16.6819 0.0749459 16.5365 0.0305809 16.3743C-0.0137842 16.2121 -0.00903874 16.0404 0.0442166 15.8808L2.2217 9.3497H6.8002C7.02562 9.3497 7.2418 9.26015 7.40119 9.10075C7.56058 8.94135 7.65012 8.72515 7.65012 8.49973C7.65012 8.2743 7.56058 8.05811 7.40119 7.89871C7.2418 7.73931 7.02562 7.64976 6.8002 7.64976H2.2217L0.0433666 1.11861C-0.00961442 0.95917 -0.0141545 0.787599 0.0303199 0.625576C0.0747942 0.463553 0.167138 0.318346 0.294092 0.208299Z" fill="#D9D9D9"/>
</svg>
