<svg width="36" height="36" viewBox="0 0 36 36" fill="none" xmlns="http://www.w3.org/2000/svg">
<g filter="url(#filter0_ii_8328_59521)">
<circle cx="18" cy="18" r="18" fill="#27272A"/>
<path fill-rule="evenodd" clip-rule="evenodd" d="M17.9996 9C17.0816 9 16.2011 9.37928 15.5519 10.0544C14.9028 10.7295 14.5381 11.6452 14.5381 12.6V17.1C14.5381 18.0548 14.9028 18.9705 15.5519 19.6456C16.2011 20.3207 17.0816 20.7 17.9996 20.7C18.9177 20.7 19.7981 20.3207 20.4473 19.6456C21.0965 18.9705 21.4612 18.0548 21.4612 17.1V12.6C21.4612 11.6452 21.0965 10.7295 20.4473 10.0544C19.7981 9.37928 18.9177 9 17.9996 9ZM11.9419 16.2C12.1714 16.2 12.3916 16.2948 12.5538 16.4636C12.7161 16.6324 12.8073 16.8613 12.8073 17.1C12.8073 18.5322 13.3544 19.9057 14.3281 20.9184C15.3018 21.9311 16.6225 22.5 17.9996 22.5C19.3767 22.5 20.6974 21.9311 21.6711 20.9184C22.6449 19.9057 23.1919 18.5322 23.1919 17.1C23.1919 16.8613 23.2831 16.6324 23.4454 16.4636C23.6077 16.2948 23.8278 16.2 24.0573 16.2C24.2868 16.2 24.5069 16.2948 24.6692 16.4636C24.8315 16.6324 24.9227 16.8613 24.9227 17.1C24.9228 18.8538 24.3075 20.5474 23.1921 21.8628C22.0768 23.1782 20.5381 24.025 18.865 24.2442V26.1C18.865 26.3387 18.7738 26.5676 18.6115 26.7364C18.4492 26.9052 18.2291 27 17.9996 27C17.7701 27 17.55 26.9052 17.3877 26.7364C17.2254 26.5676 17.1342 26.3387 17.1342 26.1V24.2442C15.4611 24.025 13.9225 23.1782 12.8071 21.8628C11.6917 20.5474 11.0764 18.8538 11.0765 17.1C11.0765 16.8613 11.1677 16.6324 11.33 16.4636C11.4923 16.2948 11.7124 16.2 11.9419 16.2Z" fill="#D9D9D9"/>
</g>
<defs>
<filter id="filter0_ii_8328_59521" x="-0.84375" y="-1.96875" width="37.125" height="39.0938" filterUnits="userSpaceOnUse" color-interpolation-filters="sRGB">
<feFlood flood-opacity="0" result="BackgroundImageFix"/>
<feBlend mode="normal" in="SourceGraphic" in2="BackgroundImageFix" result="shape"/>
<feColorMatrix in="SourceAlpha" type="matrix" values="0 0 0 0 0 0 0 0 0 0 0 0 0 0 0 0 0 0 127 0" result="hardAlpha"/>
<feOffset dx="-0.84375" dy="-1.96875"/>
<feGaussianBlur stdDeviation="1.125"/>
<feComposite in2="hardAlpha" operator="arithmetic" k2="-1" k3="1"/>
<feColorMatrix type="matrix" values="0 0 0 0 0 0 0 0 0 0 0 0 0 0 0 0 0 0 0.31 0"/>
<feBlend mode="normal" in2="shape" result="effect1_innerShadow_8328_59521"/>
<feColorMatrix in="SourceAlpha" type="matrix" values="0 0 0 0 0 0 0 0 0 0 0 0 0 0 0 0 0 0 127 0" result="hardAlpha"/>
<feOffset dx="0.28125" dy="1.125"/>
<feGaussianBlur stdDeviation="1.125"/>
<feComposite in2="hardAlpha" operator="arithmetic" k2="-1" k3="1"/>
<feColorMatrix type="matrix" values="0 0 0 0 1 0 0 0 0 1 0 0 0 0 1 0 0 0 0.06 0"/>
<feBlend mode="normal" in2="effect1_innerShadow_8328_59521" result="effect2_innerShadow_8328_59521"/>
</filter>
</defs>
</svg>
