<svg width="28" height="25" viewBox="0 0 28 25" fill="none" xmlns="http://www.w3.org/2000/svg">
<path d="M0 2.23214C0 1 0.98 0 2.1875 0H25.8125C27.02 0 28 1 28 2.23214V4.91071C28 6.14286 27.02 7.14286 25.8125 7.14286H2.1875C0.98 7.14286 0 6.14286 0 4.91071V2.23214ZM1.75 8.92857H26.25V19.6429C26.25 21.0637 25.6969 22.4263 24.7123 23.4309C23.7277 24.4356 22.3924 25 21 25H7C5.60761 25 4.27226 24.4356 3.28769 23.4309C2.30312 22.4263 1.75 21.0637 1.75 19.6429V8.92857ZM11.375 12.5C11.1429 12.5 10.9204 12.5941 10.7563 12.7615C10.5922 12.929 10.5 13.1561 10.5 13.3929C10.5 13.6297 10.5922 13.8568 10.7563 14.0242C10.9204 14.1916 11.1429 14.2857 11.375 14.2857H16.625C16.8571 14.2857 17.0796 14.1916 17.2437 14.0242C17.4078 13.8568 17.5 13.6297 17.5 13.3929C17.5 13.1561 17.4078 12.929 17.2437 12.7615C17.0796 12.5941 16.8571 12.5 16.625 12.5H11.375Z" fill="#535252"/>
</svg>
