<svg width="56" height="47" viewBox="0 0 56 47" fill="none" xmlns="http://www.w3.org/2000/svg">
<path d="M22.2 20.4C22.2 19.74 21.66 19.2 21 19.2H18.708C20.364 16.332 23.46 14.4 27 14.4C31.188 14.4 34.74 17.088 36.048 20.832C36.216 21.3 36.684 21.6 37.176 21.6C37.992 21.6 38.592 20.796 38.328 20.028C36.684 15.348 32.232 12 27 12C23.076 12 19.584 13.896 17.4 16.812V15.6C17.4 14.94 16.86 14.4 16.2 14.4C15.54 14.4 15 14.94 15 15.6V20.4C15 21.06 15.54 21.6 16.2 21.6H21C21.66 21.6 22.2 21.06 22.2 20.4ZM31.8 27.6C31.8 28.26 32.34 28.8 33 28.8H35.292C33.636 31.668 30.54 33.6 27 33.6C22.812 33.6 19.26 30.912 17.952 27.168C17.8642 26.9406 17.7093 26.7452 17.5078 26.6081C17.3063 26.4709 17.0678 26.3983 16.824 26.4C16.008 26.4 15.408 27.204 15.672 27.972C17.316 32.652 21.768 36 27 36C30.924 36 34.416 34.104 36.6 31.188V32.4C36.6 33.06 37.14 33.6 37.8 33.6C38.46 33.6 39 33.06 39 32.4V27.6C39 26.94 38.46 26.4 37.8 26.4H33C32.34 26.4 31.8 26.94 31.8 27.6Z" fill="#D9D9D9"/>
</svg>
