<svg width="19" height="26" viewBox="0 0 19 26" fill="none" xmlns="http://www.w3.org/2000/svg">
<path d="M8.44332 26C8.30565 25.9998 8.16906 25.9758 8.03965 25.9291C7.79002 25.8381 7.57829 25.6664 7.43837 25.4414C7.29844 25.2164 7.23842 24.9512 7.26792 24.6882L8.18212 16.3091H1.18907C0.973375 16.3095 0.761669 16.2513 0.576687 16.1409C0.391704 16.0305 0.240434 15.872 0.139122 15.6824C0.0378102 15.4929 -0.00971526 15.2795 0.00164951 15.0651C0.0130143 14.8507 0.0828401 14.6434 0.203628 14.4655L9.57124 0.520112C9.71939 0.301877 9.93654 0.13916 10.1882 0.0577981C10.4399 -0.0235643 10.7116 -0.0189096 10.9604 0.0710235C11.1994 0.159379 11.4036 0.322022 11.5426 0.534873C11.6816 0.747724 11.748 0.999469 11.7321 1.25284L10.8179 9.69098H17.8109C18.0266 9.69066 18.2383 9.74883 18.4233 9.85924C18.6083 9.96966 18.7596 10.1281 18.8609 10.3177C18.9622 10.5072 19.0097 10.7207 18.9984 10.9351C18.987 11.1495 18.9172 11.3567 18.7964 11.5346L9.42876 25.48C9.31986 25.6404 9.17303 25.7717 9.00121 25.8624C8.82938 25.953 8.6378 26.0003 8.44332 26Z" fill="#E7CD38"/>
</svg>
