<svg width="57" height="47" viewBox="0 0 57 47" fill="none" xmlns="http://www.w3.org/2000/svg">
<g id="Frame 6">
<path id="Vector" d="M26.4433 37C26.3057 36.9998 26.1691 36.9758 26.0397 36.9291C25.79 36.8381 25.5783 36.6664 25.4384 36.4414C25.2984 36.2164 25.2384 35.9512 25.2679 35.6882L26.1821 27.3091H19.1891C18.9734 27.3095 18.7617 27.2513 18.5767 27.1409C18.3917 27.0305 18.2404 26.872 18.1391 26.6824C18.0378 26.4929 17.9903 26.2795 18.0016 26.0651C18.013 25.8507 18.0828 25.6434 18.2036 25.4655L27.5712 11.5201C27.7194 11.3019 27.9365 11.1392 28.1882 11.0578C28.4399 10.9764 28.7116 10.9811 28.9604 11.071C29.1994 11.1594 29.4036 11.322 29.5426 11.5349C29.6816 11.7477 29.748 11.9995 29.7321 12.2528L28.8179 20.691H35.8109C36.0266 20.6907 36.2383 20.7488 36.4233 20.8592C36.6083 20.9697 36.7596 21.1281 36.8609 21.3177C36.9622 21.5072 37.0097 21.7207 36.9984 21.9351C36.987 22.1495 36.9172 22.3567 36.7964 22.5346L27.4288 36.48C27.3199 36.6404 27.173 36.7717 27.0012 36.8624C26.8294 36.953 26.6378 37.0003 26.4433 37Z" fill="#D9D9D9"/>
</g>
</svg>
