<svg width="64" height="64" viewBox="0 0 64 64" fill="none" xmlns="http://www.w3.org/2000/svg">
<g filter="url(#filter0_ii_3008_23267)">
<circle cx="32" cy="32" r="32" fill="#27272A"/>
<path fill-rule="evenodd" clip-rule="evenodd" d="M32.0001 16C30.368 16 28.8027 16.6743 27.6486 17.8745C26.4946 19.0747 25.8462 20.7026 25.8462 22.4V30.4C25.8462 32.0974 26.4946 33.7253 27.6486 34.9255C28.8027 36.1257 30.368 36.8 32.0001 36.8C33.6322 36.8 35.1974 36.1257 36.3515 34.9255C37.5056 33.7253 38.1539 32.0974 38.1539 30.4V22.4C38.1539 20.7026 37.5056 19.0747 36.3515 17.8745C35.1974 16.6743 33.6322 16 32.0001 16ZM21.2308 28.8C21.6389 28.8 22.0302 28.9686 22.3187 29.2686C22.6072 29.5687 22.7693 29.9757 22.7693 30.4C22.7693 32.9461 23.7418 35.3879 25.4729 37.1882C27.204 38.9886 29.5519 40 32.0001 40C34.4482 40 36.7961 38.9886 38.5272 37.1882C40.2583 35.3879 41.2308 32.9461 41.2308 30.4C41.2308 29.9757 41.3929 29.5687 41.6814 29.2686C41.97 28.9686 42.3613 28.8 42.7693 28.8C43.1773 28.8 43.5686 28.9686 43.8572 29.2686C44.1457 29.5687 44.3078 29.9757 44.3078 30.4C44.308 33.5179 43.2141 36.5287 41.2312 38.8672C39.2484 41.2057 36.513 42.7111 33.5385 43.1008V46.4C33.5385 46.8243 33.3764 47.2313 33.0879 47.5314C32.7994 47.8314 32.4081 48 32.0001 48C31.592 48 31.2007 47.8314 30.9122 47.5314C30.6237 47.2313 30.4616 46.8243 30.4616 46.4V43.1008C27.4872 42.7111 24.7518 41.2057 22.7689 38.8672C20.7861 36.5287 19.6921 33.5179 19.6924 30.4C19.6924 29.9757 19.8545 29.5687 20.143 29.2686C20.4315 28.9686 20.8228 28.8 21.2308 28.8Z" fill="#D9D9D9"/>
</g>
<defs>
<filter id="filter0_ii_3008_23267" x="-1.5" y="-3.5" width="66" height="69.5" filterUnits="userSpaceOnUse" color-interpolation-filters="sRGB">
<feFlood flood-opacity="0" result="BackgroundImageFix"/>
<feBlend mode="normal" in="SourceGraphic" in2="BackgroundImageFix" result="shape"/>
<feColorMatrix in="SourceAlpha" type="matrix" values="0 0 0 0 0 0 0 0 0 0 0 0 0 0 0 0 0 0 127 0" result="hardAlpha"/>
<feOffset dx="-1.5" dy="-3.5"/>
<feGaussianBlur stdDeviation="2"/>
<feComposite in2="hardAlpha" operator="arithmetic" k2="-1" k3="1"/>
<feColorMatrix type="matrix" values="0 0 0 0 0 0 0 0 0 0 0 0 0 0 0 0 0 0 0.31 0"/>
<feBlend mode="normal" in2="shape" result="effect1_innerShadow_3008_23267"/>
<feColorMatrix in="SourceAlpha" type="matrix" values="0 0 0 0 0 0 0 0 0 0 0 0 0 0 0 0 0 0 127 0" result="hardAlpha"/>
<feOffset dx="0.5" dy="2"/>
<feGaussianBlur stdDeviation="2"/>
<feComposite in2="hardAlpha" operator="arithmetic" k2="-1" k3="1"/>
<feColorMatrix type="matrix" values="0 0 0 0 1 0 0 0 0 1 0 0 0 0 1 0 0 0 0.06 0"/>
<feBlend mode="normal" in2="effect1_innerShadow_3008_23267" result="effect2_innerShadow_3008_23267"/>
</filter>
</defs>
</svg>
